<?xml version="1.0"?>
<svg xmlns:rdf="http://www.w3.org/1999/02/22-rdf-syntax-ns#" xmlns="http://www.w3.org/2000/svg" xmlns:cc="http://creativecommons.org/ns#" xmlns:xlink="http://www.w3.org/1999/xlink" xmlns:dc="http://purl.org/dc/elements/1.1/" xmlns:svg="http://www.w3.org/2000/svg" id="svg2" viewBox="0 0 519.43 707.89" version="1.1">
  <defs id="defs4">
    <filter id="filter6100" height="1.3132" width="1.1399" color-interpolation-filters="sRGB" y="-.15659" x="-.069934">
      <feGaussianBlur id="feGaussianBlur6102" stdDeviation="0.7180725"/>
    </filter>
    <filter id="filter6096" height="1.3349" width="1.1399" color-interpolation-filters="sRGB" y="-.16746" x="-.069934">
      <feGaussianBlur id="feGaussianBlur6098" stdDeviation="0.7180725"/>
    </filter>
    <filter id="filter6092" height="1.3349" width="1.1389" color-interpolation-filters="sRGB" y="-.16746" x="-.069431">
      <feGaussianBlur id="feGaussianBlur6094" stdDeviation="0.7180725"/>
    </filter>
    <filter id="filter6088" height="1.341" width="1.1399" color-interpolation-filters="sRGB" y="-.1705" x="-.069934">
      <feGaussianBlur id="feGaussianBlur6090" stdDeviation="0.7180725"/>
    </filter>
    <filter id="filter6084" height="1.3136" width="1.144" color-interpolation-filters="sRGB" y="-.15682" x="-.072022">
      <feGaussianBlur id="feGaussianBlur6086" stdDeviation="0.7180725"/>
    </filter>
    <filter id="filter5892" color-interpolation-filters="sRGB">
      <feGaussianBlur id="feGaussianBlur5894" stdDeviation="0.84372865"/>
    </filter>
    <linearGradient id="linearGradient5803">
      <stop id="stop5805" stop-color="#666" offset="0"/>
      <stop id="stop5807" stop-color="#0e232e" offset="1"/>
    </linearGradient>
    <linearGradient id="linearGradient5827">
      <stop id="stop5829" stop-color="#fff" offset="0"/>
      <stop id="stop5831" stop-color="#999" offset="1"/>
    </linearGradient>
    <linearGradient id="linearGradient4348" y2="614.15" gradientUnits="userSpaceOnUse" y1="611.29" x2="367.86" x1="392.86">
      <stop id="stop5944" stop-color="#364e59" offset="0"/>
      <stop id="stop5946" stop-color="#2d2d2d" offset="1"/>
    </linearGradient>
    <linearGradient id="linearGradient4350" x1="365" gradientUnits="userSpaceOnUse" y1="632.01" gradientTransform="matrix(.91135 0 0 .91135 -203.98 2551.6)" x2="350.71" y2="623.08">
      <stop id="stop5932" stop-color="#364e59" offset="0"/>
      <stop id="stop5934" stop-color="#364e59" stop-opacity="0" offset="1"/>
    </linearGradient>
    <linearGradient id="linearGradient4352" x1="355" gradientUnits="userSpaceOnUse" y1="519.86" gradientTransform="matrix(.91135 0 0 .91135 -204.64 2551.6)" x2="359.64" y2="518.79">
      <stop id="stop5908" stop-color="#2d2d2d" offset="0"/>
      <stop id="stop5910" stop-color="#2d2d2d" stop-opacity="0" offset="1"/>
    </linearGradient>
    <linearGradient id="linearGradient4354" x1="394.81" gradientUnits="userSpaceOnUse" y1="588.97" gradientTransform="matrix(.99967 0 0 .91115 -239.01 2551.8)" x2="367.63" y2="596.65">
      <stop id="stop5266" stop-color="#364e59" offset="0"/>
      <stop id="stop5268" stop-color="#2d2d2d" offset="1"/>
    </linearGradient>
    <linearGradient id="linearGradient4356" x1="344.29" gradientUnits="userSpaceOnUse" y1="540.93" gradientTransform="matrix(.91135 0 0 .91135 -203.98 2551.6)" x2="367.5" y2="541.65">
      <stop id="stop5274" stop-color="#0e232e" offset="0"/>
      <stop id="stop5276" stop-color="#0e232e" offset="1"/>
    </linearGradient>
    <linearGradient id="linearGradient4358" x1="359.64" gradientUnits="userSpaceOnUse" y1="528.08" gradientTransform="matrix(.91135 0 0 .91135 -203.98 2551.6)" x2="357.5" y2="417.01">
      <stop id="stop5792" stop-color="#2d2d2d" offset="0"/>
      <stop id="stop5794" stop-color="#0e232e" offset="1"/>
    </linearGradient>
    <linearGradient id="linearGradient4360" x1="248.21" xlink:href="#linearGradient5803" gradientUnits="userSpaceOnUse" y1="513.79" gradientTransform="matrix(.62639 0 0 .47049 -31.946 2805.3)" x2="248.57" y2="509.51"/>
    <linearGradient id="linearGradient4362" x1="248.21" xlink:href="#linearGradient5803" gradientUnits="userSpaceOnUse" y1="513.79" gradientTransform="matrix(.28834 0 0 -.26139 65.378 3164.1)" x2="248.57" y2="509.51"/>
    <linearGradient id="linearGradient4364" x1="250" gradientUnits="userSpaceOnUse" y1="544.15" gradientTransform="matrix(.42628 0 0 .48295 30.258 2777.9)" x2="250" y2="527.01">
      <stop id="stop5819" stop-color="#364e59" offset="0"/>
      <stop id="stop5821" stop-color="#2d2d2d" offset="1"/>
    </linearGradient>
    <linearGradient id="linearGradient4366" x1="249.29" xlink:href="#linearGradient5827" gradientUnits="userSpaceOnUse" y1="540.22" gradientTransform="matrix(.41951 0 0 .50632 31.882 2765.6)" x2="254.29" y2="539.15"/>
    <linearGradient id="linearGradient4368" x1="248.21" xlink:href="#linearGradient5803" gradientUnits="userSpaceOnUse" y1="513.79" gradientTransform="matrix(.27839 0 0 -.24048 77.785 3155.3)" x2="248.57" y2="509.51"/>
    <linearGradient id="linearGradient4370" x1="249.29" xlink:href="#linearGradient5827" gradientUnits="userSpaceOnUse" y1="540.22" gradientTransform="matrix(.40505 0 0 .46581 45.444 2788.7)" x2="254.29" y2="539.15"/>
    <linearGradient id="linearGradient4372" x1="248.21" xlink:href="#linearGradient5803" gradientUnits="userSpaceOnUse" y1="513.79" gradientTransform="matrix(.62639 0 0 .47049 -18.601 2803.4)" x2="248.57" y2="509.51"/>
    <linearGradient id="linearGradient4374" x1="248.21" xlink:href="#linearGradient5803" gradientUnits="userSpaceOnUse" y1="513.79" gradientTransform="matrix(.55515 0 0 .25005 7.1578 2915.2)" x2="248.57" y2="509.51"/>
    <linearGradient id="linearGradient4376" x1="351.93" gradientUnits="userSpaceOnUse" y1="549.34" gradientTransform="matrix(.89232 0 0 .83665 -196.46 2591.4)" x2="371.43" y2="532.36">
      <stop id="stop5920" stop-color="#364e59" offset="0"/>
      <stop id="stop5922" stop-color="#364e59" stop-opacity="0" offset="1"/>
    </linearGradient>
    <linearGradient id="linearGradient4378" x1="389.29" gradientUnits="userSpaceOnUse" y1="566.83" gradientTransform="matrix(.91135 0 0 .91135 -203.98 2551.6)" x2="374.11" y2="571.65">
      <stop id="stop6032" stop-color="#0e232e" offset="0"/>
      <stop id="stop6034" stop-color="#2d2d2d" offset="1"/>
    </linearGradient>
  </defs>
  <g id="layer1" transform="translate(-477.43 -236.82)">
    <path id="path4040" fill="#3f372d" d="m596.7 513.14 21.803-28.43 3.6339-8.9778 5.7714-4.4889 16.032-11.543 20.948-20.307 6.8402-9.1916 8.1228-3.4201 4.7027 5.7714-7.054 7.909-2.1376 12.612v6.6265l-7.054 9.1916-12.612 12.398-5.7715 5.7715 7.909 7.909-2.1376 10.26-10.474 9.1916-7.054 15.818-11.543 15.818-16.032-19.238-13.894-13.68"/>
    <path id="path4034" fill="#292929" d="m733.08 513.14-9.1916 3.4201-22.017 30.781-25.437 5.5577-28.857 10.26-15.177 10.26 1.2825 10.26-17.314-3.4201-12.825 6.8402-8.1228 8.9778 11.543-19.238 30.14-21.59-16.246-21.59-19.666-17.101-2.3513-11.329-23.086 20.521-17.314 10.047-9.1916 5.7714-8.1228-4.4889-7.054 5.5577-9.1916 17.101-11.543 9.1916-19.666 14.749-8.1228 11.329-2.3513 17.101v26.078l-5.7715 20.307 1.2826 17.101 4.4889 22.658 8.1228 6.8402 17.314 11.329 35.911 4.7027 9.1916 3.4201 4.7027 2.1376 5.7714-1.0688 8.1228-2.3513 23.086-4.4889 28.857-10.26 2.3513 57.928 3.6339 62.417-3.6339 46.599 8.1228 7.9091-3.4201 60.28 339.02-1.0688 7.909-36.339 7.054-53.439 3.4201-31.85-1.0688-20.307 4.4889-25.01 2.3513-19.452 2.3513-19.238-3.4201-27.361v-29.498l-4.7027-41.896-14.963-28.43-10.474-18.169-6.8402-22.658-13.894-8.1228-7.054-7.909-58.997-29.499-5.7714-11.329-23.086-17.101-25.437-5.5577-73.96 13.467-15.177 10.26"/>
    <path id="path4038" fill="#3f372d" d="m706.58 418.87h14.963l17.314 7.909 8.1228 3.4201h16.246l11.543-13.467 22.017-20.521 12.612-1.0688 16.246 1.0688-1.0688 11.329 3.4201 10.26v8.9778l-2.3513 10.26-6.8402 10.26 2.1376 29.499 4.7026 18.169 5.7714 9.1916-51.943 53.226-34.842 2.3513-9.1916-17.101 1.0688-38.476-9.1916-2.3513-8.1228-11.329-6.8402-14.749-3.4201-11.329-4.7027-21.59 2.3513-23.941"/>
    <g id="g4473">
      <path id="path4469" fill="#845c24" d="m652.97 498.86-2.9054 1.287-5.9157 4.671-3.3606 3.5746-11.015 3.3223 3.3068-5.8839 8.0385-5.8882 2.2521-2.0203 13.512-7.448c6.2346-8.3123-0.2512-2.3888 8.3555-7.8769l6.2154-3.7911 0.2282 11.154-5.2391 7.3916"/>
      <path id="path4471" fill="#988352" d="m659.11 492.8-13.5 7.6585-8.8376 1.7545 7.3477-4.7274 1.1871-1.2869c17.445-9.3559 6.1747-0.13326 20.883-13.28l1.4315 4.3298"/>
    </g>
    <path id="path4042" fill="#845c24" d="m715.77 433.62-6.8402 11.329 2.1376 4.7027h8.1228l7.054-2.3513 6.8402 2.3513v-6.8402l-9.1916-1.2825 10.474-1.0688 5.7714 4.4889v10.26l-12.825-3.4201-5.7714 2.3513-8.1228-2.3513-3.4201-1.0688v-7.909l1.0688-7.909-6.8402 2.1376 1.0688 12.612 3.6339 11.329 3.4201 10.26 2.3513-5.7714 5.7714 2.3513 5.7715-2.3513 11.543 4.4889 4.4889-3.4201 7.054 4.7027 11.543 1.0688-1.0688-7.909 5.7714-3.4201 4.4889-1.2826-5.7714-11.329-11.543-8.9778-14.963-4.4889h-12.825l-9.1916-1.2825"/>
    <path id="path4044" fill="#845c24" d="m720.47 472.31 11.543-1.0688 5.7714 4.4889-4.7027 2.1376-10.474-2.1376-5.7714 1.0688 3.6339-4.4889"/>
    <path id="path4046" fill="#845c24" d="m732.01 483.64-8.1228-2.3513-5.7714 4.7027 4.4889 7.909 5.9852 6.8402 10.26-1.2826h12.825l3.4201-10.047-12.825-1.2825-10.26-4.4889"/>
    <path id="path4048" fill="#845c24" d="m723.89 482.57 8.1228 2.1376 10.26 3.4201 12.825 1.2825-4.7027 10.047h-11.543l-10.26 1.2826-4.7027-7.909-4.7027-6.8402 4.7027-3.4201"/>
    <path id="path4050" fill="#845c24" d="m738.85 506.29-1.0688 32.919 11.543 10.26 3.4201 6.8402 20.948-3.4201 16.032-12.398 20.948-19.452v-14.749l-7.054-13.467-10.26 6.6265-9.4053 13.68-13.894 11.329-14.963-2.1376-9.1916-9.1916-7.054-6.8402"/>
    <path id="path4056" fill="#845c24" d="m805.97 426.78 4.7027 4.7027-2.3513 4.4889-3.4201 4.4889v-6.8402l1.0688-6.8402"/>
    <path id="path4058" fill="#845c24" d="m823.29 421.22-3.4201 8.9778-5.7714 6.8402-6.8402 5.7714v7.909h6.8402v-10.26l2.3513 2.3513 4.4889-3.4201 5.9852-10.26-1.2826-6.8402-1.0688-5.5577-1.2826 4.4889"/>
    <path id="path4062" fill="#8b9472" d="m699.52 578.97-17.314 2.3513-31.209 36.339-16.246 17.101-5.7714 20.307 1.2825 25.01 80.8-8.9778 3.6339-28.43 7.909-27.361 10.474 13.68-10.474 19.452-3.4201 22.658-27.788 8.9778-45.103 4.7027-16.032 5.5577-1.2825 62.417 4.7026 73.96-8.1228 48.737 64.769-6.8403 4.7027-32.919 3.4201 12.612-3.4201 29.499-60.28 2.3513-4.4889 45.317 10.26 15.818 126.12-2.1375-5.7715-97.687 7.054-47.668-8.1228-38.69 1.0688-43.179 10.474-72.678 10.26-33.987-1.0688-23.941-27.788 3.4201-20.734 2.3513-4.7027-10.26-12.612 20.307v-20.307l-15.177 2.1376"/>
    <path id="path4064" fill="#8b9472" d="m730.73 540.5-16.032 18.169-12.825 7.909 24.368 4.4889 19.666 7.909 11.543-4.4889-11.543-19.238-15.177-14.749"/>
    <path id="path4066" fill="#8b9472" d="m837.18 500.74-19.666 18.169-29.926 28.43-30.14 28.216 55.577-10.047 1.0688-20.521 38.263 15.818 10.26-28.216 4.7027-16.032-18.597-10.26-11.543-5.5577"/>
    <path id="path4068" fill="#8b9472" d="m827.99 559.73-3.4201 14.749-32.491 2.3513v13.68l-10.474 21.59-5.7714 24.796-2.1376 37.621 9.1916-1.2826 36.98-4.4889 49.806 11.329 12.612-32.919 2.3513-15.818 1.2826 28.43 9.1916 10.26 4.4889-30.781 1.2825-30.567 22.017-37.621-10.474 30.781-1.0688 25.01v14.749l16.032-20.521 11.543-40.828 4.7027 18.169-5.7714 30.567-23.086 36.339-7.054 18.169-2.1376 31.85 32.277 15.818 10.474 23.941-31.209-19.238-10.474 7.909 1.0688 40.828 8.1228 22.658h-8.1228l-8.1228 12.612 1.2825 121.41 62.417 1.2826 5.7714-80.587 4.7027-36.553-7.054-33.987-13.894-20.521v-15.818l13.894 13.68 8.1228-23.941v-27.147l-25.437-20.521 20.948-5.7714-3.6339-33.987-5.7715-54.508-17.314-31.85-24.368-16.887-47.24-20.521-5.7715 21.59-3.6339 19.238-20.734-12.398-22.017-4.7027 8.1228 2.3513"/>
    <path id="path4070" fill="#8b9472" d="m780.54 675.59 61.348 7.909 30.14 7.909v14.963l3.4201 45.317-13.894-13.68 4.7026 19.452 9.1916 18.169 10.474 25.01-7.054 35.056-12.612-3.4201 3.4201 47.882-35.911-4.7027-56.646-1.0688 2.3513-46.599-8.1228 23.941 2.3513 23.727 68.189 7.9091 35.911 8.1228-4.7027 49.805h-97.26l-5.7714-80.586 1.2825-66.906 5.7714-35.27 14.963 14.749-4.4889-26.078-22.017-32.919 10.26-50.019 4.7027 11.329"/>
    <path id="path4072" fill="#8b9472" d="m597.77 506.29 3.4201 16.032 11.543 10.26-4.4889 16.887-11.543 3.4201-8.1228 11.329-11.543 8.1228-27.788 23.727-12.825 17.101-24.155 36.339 25.437-16.032-9.4053 18.169 16.246-12.398 13.894-14.749 13.894-9.1916-9.1916 17.101-18.597 10.26-16.246 22.658 24.368-11.329-10.474 10.26-24.155 13.68v12.398l20.734-1.0688 20.734-10.26 9.4053-14.749v17.101l-13.894 10.047-27.788 16.032-31.209 1.0688-12.825-13.68-3.4201-26.078 5.7714-29.499v-37.408l8.1228-16.032 13.894-11.329 12.612-7.909 12.825-26.078 22.017-2.3513-1.2825 16.032-9.1916 4.4889h14.963l-4.4889 15.818h8.1228l3.4201-12.398-3.4201-7.909v-19.452l19.666-15.818 14.963-12.612"/>
    <path id="path4082" fill="#ceaa65" d="m796.78 544.99-17.314 6.8402-19.666 22.658 16.032 1.0688 19.666-6.6265 18.597-6.8402-5.7714-6.8402-11.543-10.26"/>
    <path id="path4084" fill="#897b6a" d="m735.43 547.34-2.3513 27.147-9.1916-5.5577-17.314-3.4201 10.26-14.749 16.246-12.612 2.3513 9.1916"/>
    <path id="path4086" fill="#5c6264" d="m839.53 500.74-8.1228 3.4201-4.4889 10.26 2.1376 6.6265 10.474-3.4201-6.8402 10.26-8.1228 7.909 11.543 8.1228h10.474l5.7714-16.032v-13.467l-11.757-3.4201-1.0688-10.26"/>
    <path id="path4088" fill="#787169" d="m844.24 493.9-5.7714 8.9778 5.7714 11.543 8.1228 4.4889-5.7714 26.078 6.8402 5.7714 9.1916-29.712-4.4889-10.047-3.6339-6.8402-10.26-10.26"/>
    <path id="path4090" fill="#ceaa65" d="m737.78 584.74 14.963 11.329 24.368-13.68 8.1228 8.1228-8.1228 6.6265-11.543 5.7714 2.3513 14.749 10.26 5.7714v20.307l-11.543-4.4889-13.894-1.0688-4.4889 16.887-11.757 9.1916-11.543-1.0688 8.1228-13.68 8.1228-12.612v-21.59l-13.894-11.329v-11.329l10.474-7.909"/>
    <path id="path4108" fill="#9d7840" d="m740.14 521.04v17.101l5.7714 9.1916 8.1228 7.909h23.086l8.1228-10.26 10.26-10.26 1.2826-13.68-4.7027-5.5577-8.1228 8.9778-9.1916 9.1916-19.666 2.1376-3.4201-10.047-11.543-11.329v6.6265"/>
    <path id="path4110" fill="#9d7840" d="m736.5 438.32 4.7027 8.9778-3.4201 6.8402-10.474 1.0688-11.543 1.2825-2.3513 8.9778h12.825l13.894-2.3513 10.26-3.4201 7.054-4.4889-3.4201-11.329-8.1228-4.4889-9.4053-1.0688"/>
    <path id="path4112" fill="#9d7840" d="m716.84 434.9-4.4889 6.6265-1.2825 5.7714 2.3513 1.0688 5.7714-1.0688 2.3513-2.3513 7.054 1.2825 2.1376-2.3513-8.1228-1.0688v-3.4201l3.6339-1.0688v-2.3513l-3.6339-1.0688h-5.7714"/>
    <path id="path4116" fill="#9d7840" d="m808.32 441.53 1.0688 6.8402 3.6339 1.2826v-5.7714l3.4201-4.4889 3.4201-2.3513 2.3513-5.5577 1.0688-4.7027v-4.4889l-2.3513 7.909-5.7715 6.8402-6.8402 4.4889"/>
    <path id="path4118" fill="#877e6d" d="m872.02 549.47 31.209 17.101-9.4053 14.749-27.575 13.68-4.7026 12.398 10.474 20.521-22.017 4.4889-58.997 3.4201 19.666-57.928 19.666-20.521 31.209 6.8402 10.474-14.749"/>
    <path id="path4120" fill="#585853" d="m815.16 566.57 17.528 11.329-3.6339 14.749h-18.383l-3.4201 12.612 5.7714 13.467-19.666 6.8402 6.8402 19.452-22.017-16.032 10.474-31.85 4.7027-21.59 21.803-8.9778"/>
    <path id="path4122" fill="#585853" d="m872.02 542.63 10.26 2.3513 20.948 6.8402 14.963 26.078-12.612 19.238-2.3513 28.43-22.017 3.4201-22.017-3.4201-36.98-18.169 32.277-5.5577 13.894-13.68 25.437-14.749-17.314-16.032-4.4889-14.749"/>
    <path id="path4124" fill="#585853" d="m872.02 542.63 4.4889 16.032 17.314 14.749-26.506 14.749-12.825 12.398-32.277 6.8402h-2.3513l39.331 18.169 22.017 4.7026 22.017-4.7026 2.3513-28.43 13.68-19.238-16.032-26.078-10.474-4.4889-10.474-2.3513-10.26-2.3513zm4.4889 14.749-3.4201-13.467 10.474 2.1376 9.1916 2.3513 10.474 3.4201 14.963 26.078-13.894 19.238-2.3513 27.361-20.734 4.4889-22.017-4.4889-35.911-15.818 31.209-6.8402 13.894-12.612 25.437-15.818h1.2825l-18.597-16.032"/>
    <path id="path4126" fill="#7e7a6c" d="m647.58 628.99 6.8402 18.169 26.72-6.8402 34.629-5.5577-3.4201 31.85-26.72 4.4889-22.017 4.4889v-15.818h-16.032l-15.177 8.9778-2.1376-26.078 17.314-13.68"/>
    <path id="path4128" fill="#7e7a6c" d="m754.03 645.02-16.246 19.238-10.474 15.818-2.3513 21.589 26.72-15.818 2.3513 37.408-18.597 14.749h-39.331l6.8402-21.59-9.1916-21.59-22.017 10.26-4.4889 30.781-34.842 11.329-2.1376 66.906 24.155-4.4888 31.209-2.3513-6.8402 14.963 19.666-1.2826 1.0688-4.4889 1.2825-4.4889 4.4889-9.1916 7.054-10.26-13.894-13.467-4.7026-4.7027-1.0688-2.1376v-2.3513l1.0688-2.3513 2.3513-1.0688 8.1228-2.1376 8.1228-1.2825 8.1228 1.2825 9.1916 19.238 17.314-6.8402 2.3513-21.59 11.543-3.4201 2.3513-37.408 12.612-71.609-21.803-13.68 1.0688 7.909v6.8402l-1.0688 1.2826"/>
    <path id="path4130" fill="#7e7a6c" d="m766.64 798.29-41.683 11.329v21.589l22.017 17.101-11.543 13.68-34.629-11.543-4.7027 21.589-44.034 6.8402-14.963 4.489-4.7027 56.86 29.071 4.4889 8.1228-18.17-8.1228-21.589 17.314-11.329 22.017 21.59-17.528 18.169 30.14 4.7027 24.368-11.543-3.4201-26.078 34.629 9.1916-8.1228-64.769 5.7715-46.599"/>
    <path id="path4132" fill="#7e7a6c" d="m966.72 649.51-28.857 10.26-10.474 20.307 15.177 19.452-15.177 7.909 12.825 18.169 19.666 21.59 11.543 4.4889 2.3513-32.919-26.72-19.238 19.666-2.3513v-47.668"/>
    <path id="path4134" fill="#7e7a6c" d="m788.66 828.85 40.4-4.4889 10.474-19.238-14.963-10.26-19.666-2.3513 17.314-13.467 17.314-4.7027 1.0688-25.01-16.032-13.467-7.054-14.749v-19.452l22.017-8.9778 8.1228 19.238-8.1228 16.032 30.14 3.2064 9.1916 20.521-12.612-6.8402 2.1376 17.101 15.177 28.43 4.4889 21.59v26.078h-19.666l3.6339 45.317-27.788-8.9779-33.56-2.3513-24.368-19.238 2.3513-23.941"/>
    <path id="path4136" fill="#7e7a6c" d="m846.59 888.07-19.666-6.8402h-24.368l-7.054 19.238 19.666 4.4889 17.528 19.452-32.491-2.3514-17.314 2.3514-9.1916 20.307h102.82l2.3513-47.668-32.277-8.9779"/>
    <path id="path4138" fill="#7e7a6c" d="m954.11 805.13v19.238l-22.017 6.8403-31.209 2.3514v26.079l11.543 8.9776h22.017v25.01l-20.948 4.7027-12.612 16.887v29.498l46.172-6.6265h17.528l-2.3513-45.53 11.543-44.248v-31.85l-11.543-37.408-15.177-23.941-12.612 23.941 8.1228 15.818 11.543 10.26"/>
    <path id="path4140" fill="#585853" d="m830.34 632.41 35.911-3.4201 7.909 18.169-14.963 10.26-18.597 2.3513 18.597 20.307-24.368-4.4889-43.82-2.3513 2.3513-19.238h24.155l-10.26-25.01 19.666-12.398 3.4201 15.818"/>
    <path id="path4142" fill="#c3a86a" d="m771.34 711.93v-12.398l28.857 14.749 2.3513 16.887 22.017 4.7027 4.4889 23.727h-20.734l18.597 17.101-16.246 13.68-19.666-23.941-5.7715-23.727-13.894-30.781"/>
    <path id="path4144" fill="#585853" d="m852.36 805.13-30.14-2.3513-17.314 9.1916-9.4053-14.749-17.314 3.4201-4.4889 21.589 9.1916 13.467 2.3513 28.43 25.437 5.7715 13.894-5.7715-11.543-15.818-17.528-3.4201 4.7027-11.329 10.474-11.329 16.246-8.1228 25.437 2.3514v-11.329"/>
    <path id="path4146" fill="#585853" d="m868.39 835.7-28.857 4.7027-2.3513 10.047 17.314 13.68-14.963 14.749 30.14 6.8403 4.4889-17.101-5.7714-32.919"/>
    <path id="path4148" fill="#585853" d="m844.24 885.71-22.017 6.8403-14.963 1.0687 10.26 11.329 26.72-2.1375 3.4201 15.818-23.086 3.42-2.3513 18.17h46.172l5.7714-11.329-17.314 2.3513 2.3513-16.032 12.825-1.0688 2.1376-20.521-29.926-7.909"/>
    <path id="path4150" fill="#585853" d="m632.4 774.35 8.1228-2.1376 4.7027-1.2826h4.7026l4.4889-15.818h19.666l4.7027 19.238-12.825 11.543h24.368l-9.1916 19.238h-17.528l-6.8402-17.101-9.1916 12.612 33.56 28.216-7.054 19.452-19.666 15.818-22.017-6.8401 2.3513-45.317-2.3513-37.621"/>
    <path id="path4152" fill="#585853" d="m661.47 881.23-7.054 15.818-10.474 21.59 8.1228 19.452 13.894-4.7027-4.4889-23.727 12.612-9.1916 28.857 9.1916 15.177-12.612-22.017-4.4889h-22.017l7.054-18.17-31.209 8.9779 11.543-2.1376"/>
    <path id="path4154" fill="#585853" d="m678.79 585.81 22.017 13.68-12.825 7.909 14.963 13.68-2.1376 13.68-17.528 1.0688-13.68-14.749-12.825-13.68 22.017-21.59"/>
    <path id="path4156" fill="#585853" d="m707.64 711.93 22.017-17.101 8.1228 21.59-12.825 14.749 7.054 20.521v17.101l-13.894 19.238-17.314-11.329 17.314-25.01 9.1916-28.43-24.368 4.7027-19.666-18.383 8.1228-14.749 18.597-2.1376-2.3513 19.238"/>
    <path id="path4158" fill="#c3a86a" d="m760.87 781.19-26.506 4.7027-9.4053 12.398 10.474 18.169 9.1916 17.101-17.314 8.9778-2.3513 10.26 7.054 17.1 14.963 20.307-6.8402-21.59v-20.307l13.894-3.4201v-18.169l-7.054-23.941 22.017-4.4889-8.1228-17.101"/>
    <path id="path4160" fill="#c3a86a" d="m630.26 705.09 21.803 4.4889-2.1376 18.383 16.032 16.887-4.4889 10.26h-13.894l-5.7715-17.101-13.894 11.329 2.3513-44.248"/>
    <path id="path4162" fill="#c3a86a" d="m718.12 890.2-15.177 23.941-24.155 7.9089-24.368 22.658 48.523-4.4889 4.7027-19.238 14.963-6.8401 7.054-13.68-11.543-10.26"/>
    <path id="path4164" fill="#585853" d="m958.6 792.52-28.857 5.7715-2.3513 23.941 17.528 15.818-4.7027 17.101-10.474 11.329 8.1228 14.749 20.734 32.919-6.8402-39.759 8.1228-17.1 11.543-11.329 2.3513-27.147-17.314 3.4201 12.612-23.941-10.474-27.361v21.59"/>
    <path id="path4166" fill="#585853" d="m956.46 610.82-4.7027 31.85-22.017 13.68 24.368 3.4201 17.314-3.4201 2.3513-27.361-19.666-43.179 2.3513 25.01"/>
    <path id="path4168" fill="#c3a86a" d="m927.39 759.6-11.543 9.1916 4.7026 10.26-10.474 8.9778 8.1228 12.612-14.963 20.307 2.3513 19.452 14.963-4.7027v-23.727l9.1916-23.941 22.017-2.1376-6.8402-14.963-17.528-11.329"/>
    <path id="path4170" fill="#c3a86a" d="m910.07 683.5 34.842 9.1916 4.4889 16.887-19.666-5.5577h-22.017l2.3513-20.521"/>
    <path id="path4172" fill="#c3a86a" d="m925.25 890.2v30.781l2.1376 19.238-21.803-2.1376 2.1376-19.452v-21.59l17.528-28.43v21.59"/>
    <path id="path4174" fill="#c3a86a" d="m637.1 638.18 14.963 4.4889 7.054 14.749-26.72 2.3513 4.7027-21.59"/>
    <path id="path4176" fill="#4b4c47" d="m676.44 585.81-26.506-2.1376-15.177 18.169 22.017 3.4201 19.666-19.452"/>
    <path id="path4178" fill="#7e7a6c" d="m593.07 514.42-28.857 21.376v13.68l14.963 7.909 7.054-12.398 22.017-6.8402-15.177-23.727"/>
    <path id="path4180" fill="#7e7a6c" d="m533 557.38 9.1916 22.872-12.612 21.59 2.3513 16.887-22.017 26.292-18.597 32.919v-35.27l13.894-19.238 12.825-23.941-10.474-19.238 14.963-18.169 10.474-4.7027"/>
    <path id="path4182" fill="#c3a86a" d="m507.57 647.16-16.246 28.43-2.3513 17.101 11.543 12.398 10.474-5.5577-3.4201-19.452 3.4201-15.818 9.1916-28.43-12.612 11.329"/>
    <path id="path4184" fill="#585853" d="m510.99 581.32 7.054 23.941-10.474 23.727-16.246 13.68-5.7714 14.749 2.3513-45.317 12.612-6.8402-2.1376-19.452 24.155-14.749-12.612 21.59 1.0688-11.329"/>
    <path id="path4186" fill="#585853" d="m575.76 544.99-6.8402 36.339 19.666-12.398 9.1916-28.43-22.017 4.4889"/>
    <path id="path4200" fill="#141313" d="m627.91 701.67-3.6339-28.43v-31.636l-1.0688-20.521-6.8402 29.499-2.3513 19.452-12.825-18.383-5.7714-20.307 1.2826 25.01 11.543 22.658-12.825 17.101-19.666 8.9778-33.56 14.749 29.071 3.4201 43.82-11.329 12.825-10.26"/>
    <path id="path4202" fill="#131313" d="m883.57 679.01 13.894 25.01 2.1376-21.589 3.6339-19.238 4.4889 32.919-5.7714 37.408-3.4201 37.408 3.4201 29.712-8.1228 54.508 3.6339 86.144-10.474-2.1375 1.0688-32.919-1.0688-25.01-3.4201-31.85 10.26-4.4889 3.6339-27.361-4.7027-28.43-12.825-26.078 9.4053-7.909 4.4889-20.521-9.1916-29.499-1.0688-26.078"/>
    <path id="path4204" fill="#131313" d="m623.21 589.23 31.209-19.238 35.911-6.8402-9.1916 11.329 16.032-7.909 9.4053-15.818 17.314-29.712-14.963 14.749-12.825 11.543-48.523 13.467-18.597 14.749-13.894 4.7027-13.894 14.749 3.4201-9.1916 10.474-14.749 18.597-18.169-12.825-10.26-24.155 34.201-7.054 12.398-12.612 14.749 7.909 12.612-2.1376 22.658-22.017 15.818-12.825 19.452 27.788-14.749-3.4201 13.467-18.597 31.85 20.948-13.68 14.963-22.658-3.4201-29.499 9.1916-20.521 13.894-13.467-3.4201 23.727 14.963-30.567 2.3513-9.1916"/>
    <g id="g3510" stroke-width="0" transform="matrix(1.3779 -.47030 .47030 1.3779 -968.39 -3728.3)">
      <path id="path5952" fill="#9eabb0" d="m128.37 3139.2c8.8397-0.5386 16.721-4.6245 24.635-8.5912-0.59718-14.208 0.0775-28.417 0.35699-42.625l3.5702-4.9564-1.0711-40.312c-8.6731 4.7172-17.448 9.3083-28.919 10.574l-2.1422 42.294 3.5702 4.9564z"/>
      <path id="path5880" filter="url(#filter5892)" transform="matrix(.91135 0 0 .91135 -203.98 2551.6)" fill="url(#linearGradient4348)" d="m363.82 644.86c9.6286-0.59206 18.213-5.0839 26.833-9.4447-0.65047-15.62 0.0846-31.24 0.38888-46.86l3.8889-5.4489-1.1667-44.318c-9.4471 5.1861-19.006 10.233-31.5 11.624l-2.3333 46.497 3.8889 5.4489z"/>
      <path id="path5938" fill-opacity="0" d="m130.94 3139.3c-6.4167-0.2189-12.833 1.1915-19.25-6.7886v-38.695l-3.2083-6.4492 0.71302-43.108c5.413 4.87 11.367 8.5369 19.606 7.1282l-0.35648 43.447 2.4954 5.7703z"/>
      <path id="path5928" fill="url(#linearGradient4350)" d="m130.94 3139.3c-6.1377-0.2137-12.275 1.1629-18.413-6.6259v-37.768l-3.0688-6.2947 0.68197-42.074c5.1776 4.7532 10.873 8.3323 18.754 6.9572l-0.34094 42.406 2.3868 5.6321z"/>
      <path id="path5926" fill="#fff" d="m108.8 3046.3 13.109 9.7399 7.8655-1.4985 26.546-9.7399-17.697-8.6161-19.664 6.3684z"/>
      <path id="path5896" fill="url(#linearGradient4352)" d="m118.24 3045 1.9529-36.129 1.6274-76.814h-0.9765v-10.741l5.2077-0.3255v10.416l-0.65092 0.9764c-1.7254 0.5177 0.78863 112.58 3.5803 111.97 3.722-0.8128-10.741 0.6511-10.741 0.6511z"/>
      <path id="path5260" fill="url(#linearGradient4354)" d="m128.37 3137.7c8.8397-0.5304 16.721-4.5542 24.635-8.4607-0.59718-13.993 0.0775-27.985 0.35699-41.978l3.5702-4.8812-1.0711-39.7c-15.627 5.8101-18.093 6.4942-29.138 9.3952l-1.9236 42.67 3.5702 4.8811z"/>
      <path id="path5258" fill="#0e232e" d="m129.96 3137.7c-5.8587-0.2137-11.717 1.1628-17.576-6.6259v-37.768l-2.9293-6.2946 0.65093-42.074c6.2701 1.4338 10.635 7.6931 17.902 6.9572l-0.32546 42.406 2.2784 5.6321z"/>
      <path id="path5262" fill="url(#linearGradient4356)" d="m110.95 3045 11.197 8.4625 7.8116-1.3019 26.364-8.4626-17.576-7.4861-19.529 5.5332z"/>
      <path id="path5788" fill="url(#linearGradient4358)" d="m118.89 3045 1.9529-36.129 1.6274-76.814h-0.97642v-10.741l5.2077-0.3255v10.416l-0.65096 0.9764c-1.7253 0.5177 0.78874 112.58 3.5803 111.97 3.722-0.8128-10.741 0.6511-10.741 0.6511z"/>
      <path id="path5798" fill="url(#linearGradient4360)" d="m117.53 3044.8c-0.17076 0.187-0.25445 0.3845-0.25445 0.5881 0 1.2064 3.2106 2.1907 7.1643 2.1907s7.1447-0.9843 7.1447-2.1907c0-0.2036-0.0839-0.4011-0.25444-0.5881-0.83346 0.5333-3.5955 0.9263-6.8903 0.9263-3.2947 0-6.0764-0.393-6.9098-0.9263z"/>
      <path id="path5811" fill="url(#linearGradient4362)" d="m134.18 3031c-0.0786-0.1039-0.1172-0.2136-0.1172-0.3267 0-0.6702 1.4779-1.2172 3.2979-1.2172s3.2889 0.547 3.2889 1.2172c0 0.1131-0.039 0.2228-0.11719 0.3267-0.38358-0.2964-1.6551-0.5146-3.1717-0.5146s-2.7971 0.2182-3.1807 0.5146z"/>
      <path id="path5815" fill="url(#linearGradient4364)" d="m134.09 3031-1.5224 10.694h9.439l-1.3701-10.694c-2.3132-0.4453-4.6293-0.9005-6.5464 0z"/>
      <rect id="rect5825" height="10.126" width="1.7979" y="3031.2" x="136.61" fill="url(#linearGradient4366)"/>
      <path id="path5835" fill="url(#linearGradient4368)" d="m144.22 3032.9c-0.0756-0.095-0.1131-0.1965-0.1131-0.3005 0-0.6167 1.4269-1.1198 3.1841-1.1198s3.1754 0.5031 3.1754 1.1198c0 0.104-0.0375 0.205-0.11311 0.3005-0.37036-0.2726-1.598-0.4733-3.0623-0.4733s-2.7006 0.2007-3.071 0.4733z"/>
      <path id="path5837" fill="#0e232e" d="m144.12 3032.8-1.4699 9.8384h9.1135l-1.3229-9.8384c-2.2334-0.4097-4.4696-0.8284-6.3207 0z"/>
      <rect id="rect5839" height="9.3163" width="1.7359" y="3033" x="146.56" fill="url(#linearGradient4370)"/>
      <path id="path5847" fill="url(#linearGradient4372)" d="m130.87 3042.8c-0.17077 0.1869-0.25447 0.3845-0.25447 0.5881 0 1.2064 3.2107 2.1907 7.1643 2.1907 3.9537 0 7.1447-0.9843 7.1447-2.1907 0-0.2036-0.0842-0.4012-0.25449-0.5881-0.83343 0.5333-3.5955 0.9263-6.8902 0.9263-3.2948 0-6.0764-0.393-6.9099-0.9263z"/>
      <path id="path5851" fill="url(#linearGradient4374)" d="m139.63 3042.5c-0.15136 0.099-0.22557 0.2044-0.22557 0.3125 0 0.6412 2.8455 1.1644 6.3495 1.1644s6.3322-0.5232 6.3322-1.1644c0-0.1081-0.0738-0.2131-0.22549-0.3125-0.73866 0.2835-3.1867 0.4922-6.1067 0.4922-2.9199 0-5.3852-0.2087-6.1239-0.4922z"/>
      <rect id="rect5866" ry="2.3825" height="19.854" width="5.2077" y="3065.1" x="113.69" fill="#19aeff"/>
      <path id="path5876" transform="matrix(.91135 0 0 .91135 -203.98 2551.6)" fill="#ccff42" d="m354.29 593.79c0 1.9724-1.2792 3.5714-2.8571 3.5714-1.578 0-2.8571-1.599-2.8571-3.5714s1.2792-3.5714 2.8571-3.5714c1.578 0 2.8571 1.599 2.8571 3.5714z"/>
      <path id="path5878" transform="matrix(.91135 0 0 .91135 -203.98 2519.4)" fill="#dc0000" d="m354.29 593.79c0 1.9724-1.2792 3.5714-2.8571 3.5714-1.578 0-2.8571-1.599-2.8571-3.5714s1.2792-3.5714 2.8571-3.5714c1.578 0 2.8571 1.599 2.8571 3.5714z"/>
      <path id="path5914" fill="url(#linearGradient4376)" d="m110.59 3045.9 14.221 6.8552 5.6956 0.2518 25.814-8.9416-17.209-7.9098-19.121 5.8464z"/>
      <path id="rect5855" fill="url(#linearGradient4378)" d="m130.66 3063.8 21.807-7.0457v2.9293l-21.482 7.0861z"/>
      <path id="path5858" fill="url(#linearGradient4378)" d="m130.42 3067.6 22.458-6.3947v2.9292l-22.296 6.2823z"/>
      <path id="path5860" fill="url(#linearGradient4378)" d="m130.22 3071 22.621-5.7438v2.9293l-22.458 6.4497z"/>
      <path id="path5862" fill="url(#linearGradient4378)" d="m130.78 3075.6 22.296-6.5576v2.9293l-22.458 6.4497z"/>
      <path id="path5864" fill="url(#linearGradient4378)" d="m130.72 3080.1 22.458-6.5574v2.9292l-22.458 7.1006z"/>
      <path id="path6054" opacity=".19512" d="m367.2 562.01 23.929-7.7311v3.2143l-23.571 7.7753z" transform="matrix(.91135 0 0 .91135 -203.98 2551.6)" filter="url(#filter6084)" fill="#364e59"/>
      <path id="path6056" opacity=".19512" d="m366.94 566.09 24.643-7.0168v3.2143l-24.464 6.8933z" transform="matrix(.91135 0 0 .91135 -203.98 2551.6)" filter="url(#filter6088)" fill="#364e59"/>
      <path id="path6058" opacity=".19512" d="m366.72 569.85 24.821-6.3025v3.2143l-24.643 7.077z" transform="matrix(.91135 0 0 .91135 -203.98 2551.6)" filter="url(#filter6092)" fill="#364e59"/>
      <path id="path6060" opacity=".19512" d="m367.32 574.93 24.464-7.1954v3.2143l-24.643 7.077z" transform="matrix(.91135 0 0 .91135 -203.98 2551.6)" filter="url(#filter6096)" fill="#364e59"/>
      <path id="path6062" opacity=".19512" d="m367.26 579.85 24.643-7.1954v3.2143l-24.643 7.7913z" transform="matrix(.91135 0 0 .91135 -203.98 2551.6)" filter="url(#filter6100)" fill="#364e59"/>
    </g>
    <path id="path4036" d="m714.7 337.21 18.383-1.2825 22.017-2.1376h31.209l18.597 3.4201 11.543 7.909 12.612 16.887 2.3513 25.01-4.4889 12.612h-24.368l-19.666 11.329-17.314 19.238-15.177 2.3513-14.963-4.4889-40.4 2.1376-11.757-5.5577-1.0688-10.26 12.825-13.68 11.543-12.398-2.3513-32.919 4.7027-13.68 5.7714-4.4889"/>
    <path id="path4052" fill="#845c24" d="m804.9 412.03 11.543-4.4889 4.4889 5.7714-9.1916 3.4201-6.8402 1.0688v-2.3513l-1.2826-2.1376 1.2826-1.2825"/>
    <path id="path4054" fill="#845c24" d="m818.8 421.22v5.5577l-1.2826 4.7027-5.7714 4.4889 1.2826-4.4889 3.4201-1.2826v-2.1376l-2.3513-4.7027 4.7027-2.1376"/>
    <path id="path4074" fill="#343434" d="m785.24 354.1-17.314-10.26 13.68 1.2825 22.017 4.4889-10.26-14.749-25.437-3.4201-19.666 6.8402h-25.651l-13.68 2.3513-7.054 10.047v37.621l-10.474 13.467-8.1228 13.68 17.528-6.8402 11.543 3.4201 13.894 6.8402 32.277 10.26 12.825-10.26 10.26-25.01-31.209-2.1376 15.177-3.4201 20.734-2.3513 3.4201-18.169-4.4889-13.68"/>
    <path id="path4076" fill="#606162" d="m704.22 391.72-11.543 10.047-9.4053 10.26v3.4201l4.7026-1.0688 5.7715-4.4889 15.177 1.0688 12.612 4.4889 16.246 7.909 1.0688-3.4201-9.1916-6.6265-13.894-4.7027-2.3513-2.1376 1.2825-2.3513h1.0688l2.3513-1.0688h10.474l6.8402-2.3513 5.7714-5.5577-10.474-3.4201h-26.506"/>
    <path id="path4078" fill="#75756f" d="m778.18 334.86h-34.629l-18.597 2.3513-5.7714 3.4201 26.72-2.3513 25.437 4.4889 26.506 4.4889-4.4889-3.4201-5.7714-3.2064 11.543 2.1376h4.4889l-4.4889-4.4889-12.825-2.3513-8.1228-1.0688"/>
    <path id="path4080" fill="#606162" d="m714.7 342.77-9.4053 6.8402-1.0688 12.398 1.0688 26.292 18.597-1.2825 33.56 2.3513-3.4201-7.909-9.4053-9.1916v-8.9778l5.7715-3.4201v-6.8402l-9.1916-4.4889-1.0688-6.8402-17.528-1.0688-7.909 2.1376"/>
    <path id="path4114" fill="#9d7840" d="m805.97 413.31 8.1228-3.4201 2.3513 1.0688-1.2826 2.3513-6.8402 2.1376h-1.0688l-1.2826-1.0688v-1.0688"/>
    <path id="path4060" fill="#845c24" d="m604.61 504.16 18.597-26.292 10.474-6.6265 15.163-14.861 14.213-4.6694 5.7714 2.3513-8.1228 6.8402-15.496 4.6694-7.0407 9.0895-7.909 3.2064-1.2825 5.7714 10.474-7.909 7.0407-9.0895 14.213-2.318 7.054-5.7714v6.8402l-7.054 10.26 1.0348-1.6923-15.248 1.659-4.6894 5.6694-8.1228 6.8402h6.8402l2.3513-2.1376 5.1916-9.1117-0.50222-1.2604 16.53-0.37649-1.2826 6.6265 2.8536-0.87722-15.737 4.9993-10.474 11.329-3.4201 7.909-13.894 17.101-4.7027 5.5577-12.825-10.26-3.4201-7.909 3.4201-5.5577"/>
    <path id="path4188" fill="#988352" d="m601.19 509.72 20.948-37.408c26.363-10.492 21.45-3.6517 41.988-18.248l-12.159 5.5104-8.392 2.557-12.246 11.249-5.7715 9.1916h2.3513l2.3513-1.2826 5.7714-3.4201 5.7714-5.5577 4.6894-5.6694 6.5429-3.8617 11.09 0.26109-11.09 5.5104-8.8942 4.9305-9.392 9.0895-2.3513 8.9778 10.474-3.4201 4.1228-12.318 12.394 4.9896-10.043-2.6383-1.7714 4.409-13.894 15.818-10.474 11.329-9.1916 16.032-12.825-16.032"/>
  </g>
  <metadata>
    <rdf:RDF>
      <cc:Work>
        <dc:format>image/svg+xml</dc:format>
        <dc:type rdf:resource="http://purl.org/dc/dcmitype/StillImage"/>
        <cc:license rdf:resource="http://creativecommons.org/licenses/publicdomain/"/>
        <dc:publisher>
          <cc:Agent rdf:about="http://openclipart.org/">
            <dc:title>Openclipart</dc:title>
          </cc:Agent>
        </dc:publisher>
        <dc:title>Soldier with walkie talkie radio (tall)</dc:title>
        <dc:date>2012-10-10T06:03:07</dc:date>
        <dc:description>A combination of two cliparts into a "radio communicating soldier" illustration.\n\nA combination of &lt;a href="http://www.clker.com/clipart-army-veteran.html"&gt;army veteran&lt;/a&gt; and &lt;a href="http://openclipart.org/detail/105565/walkie-talkie-by-netalloy"&gt;walkie-talkie&lt;/a&gt;.</dc:description>
        <dc:source>http://openclipart.org/detail/172667/soldier-with-walkie-talkie-radio-tall-by-qubodup-172667</dc:source>
        <dc:creator>
          <cc:Agent>
            <dc:title>qubodup</dc:title>
          </cc:Agent>
        </dc:creator>
        <dc:subject>
          <rdf:Bag>
            <rdf:li>army</rdf:li>
            <rdf:li>clip art</rdf:li>
            <rdf:li>clipart</rdf:li>
            <rdf:li>communication</rdf:li>
            <rdf:li>message</rdf:li>
            <rdf:li>messanger</rdf:li>
            <rdf:li>personal radio</rdf:li>
            <rdf:li>radio</rdf:li>
            <rdf:li>soldier</rdf:li>
            <rdf:li>talk</rdf:li>
            <rdf:li>team</rdf:li>
            <rdf:li>walkie talkie</rdf:li>
            <rdf:li>walkie-talkie</rdf:li>
          </rdf:Bag>
        </dc:subject>
      </cc:Work>
      <cc:License rdf:about="http://creativecommons.org/licenses/publicdomain/">
        <cc:permits rdf:resource="http://creativecommons.org/ns#Reproduction"/>
        <cc:permits rdf:resource="http://creativecommons.org/ns#Distribution"/>
        <cc:permits rdf:resource="http://creativecommons.org/ns#DerivativeWorks"/>
      </cc:License>
    </rdf:RDF>
  </metadata>
</svg>
